<svg version="1.1" id="Layer_1" xmlns="http://www.w3.org/2000/svg" xmlns:xlink="http://www.w3.org/1999/xlink" x="0px" y="0px"
	 width="100%" viewBox="0 0 152 152" enable-background="new 0 0 152 152" xml:space="preserve">
<path fill="#FEFEFE" opacity="1.000000" stroke="none" 
	d="
M1.000000,60.000000 
	C1.000000,40.000004 1.000000,20.500004 1.000000,1.000005 
	C51.666656,1.000004 102.333313,1.000004 152.999969,1.000002 
	C152.999985,51.666653 152.999985,102.333305 153.000000,152.999969 
	C102.333351,152.999969 51.666706,152.999969 1.000031,152.999985 
	C1.000000,122.166664 1.000000,91.333336 1.000000,60.000000 
M69.229988,21.874813 
	C69.164551,22.317276 69.099113,22.759741 68.903427,23.682777 
	C68.779594,24.008024 68.776443,24.334435 68.239830,24.956470 
	C67.165596,25.330408 66.091354,25.704346 64.673111,25.534897 
	C62.131779,24.340275 59.590450,23.145653 57.013096,21.985449 
	C57.013096,21.985449 57.042522,21.957832 56.925049,21.408819 
	C56.602024,20.953751 56.278999,20.498680 55.872803,19.338718 
	C53.443230,15.771586 51.013657,12.204454 48.381569,8.339991 
	C46.950954,10.138696 46.437485,11.031360 45.702858,11.669380 
	C38.989296,17.500071 38.291958,29.467463 40.719685,36.221809 
	C41.373650,38.041256 43.225941,39.429989 44.664742,41.940842 
	C44.660213,44.257927 44.358040,46.624210 44.730698,48.878956 
	C45.144672,51.383690 46.174068,53.786709 46.945599,56.997520 
	C48.792965,62.381481 51.468048,62.872059 56.404205,59.059250 
	C56.835514,59.334805 57.266823,59.610355 57.698132,59.885910 
	C58.515488,57.636833 59.332840,55.387756 60.861565,53.099548 
	C62.243343,53.397839 63.625118,53.696125 65.481766,54.649593 
	C65.326942,57.769665 65.172112,60.889732 64.663002,64.552505 
	C64.447487,65.388481 64.231972,66.224457 63.398731,67.371078 
	C62.491741,69.120560 61.343464,70.789772 60.729141,72.636604 
	C59.533958,76.229675 58.857441,79.895226 61.832333,83.792603 
	C62.253654,85.187447 62.674976,86.582283 62.943924,88.676674 
	C64.849464,90.181839 66.755005,91.686996 69.118126,93.743729 
	C70.350098,94.744759 72.010925,95.500938 72.744781,96.786354 
	C77.681503,105.433372 84.612900,107.723694 94.111916,103.484520 
	C90.051476,101.931351 86.106003,100.422157 82.072792,98.171982 
	C81.727211,97.262474 81.381630,96.352966 81.605011,95.631523 
	C82.389153,95.038040 83.173286,94.444557 84.653473,93.782654 
	C86.559372,92.427620 88.465271,91.072586 90.928612,89.588188 
	C91.885666,87.884384 92.842712,86.180588 94.099800,83.698318 
	C94.926163,77.604164 94.303146,71.866898 89.923370,66.455376 
	C89.626175,65.960083 89.328979,65.464790 89.257919,64.164780 
	C88.700523,61.447651 88.143127,58.730526 88.021271,55.429684 
	C89.723595,53.256416 91.425926,51.083149 93.753227,49.030628 
	C94.173431,48.976803 94.593628,48.922977 95.469223,49.012188 
	C95.469223,49.012188 95.935989,49.111980 96.004234,49.545956 
	C96.004234,49.545956 96.019707,49.984989 95.480186,50.139282 
	C95.372261,50.471157 95.264336,50.803032 95.049126,52.020443 
	C94.996399,53.670525 94.683029,55.367313 94.967896,56.956894 
	C95.227005,58.402756 95.845001,60.570736 96.828453,60.912197 
	C98.230675,61.399067 100.209915,60.750198 101.750710,60.118301 
	C102.704674,59.727074 103.302673,58.467861 104.405266,58.051548 
	C104.895851,58.582745 105.386444,59.113941 105.944702,59.718414 
	C106.758827,58.384514 107.496185,57.176384 108.747375,55.642555 
	C108.628716,55.084091 108.510056,54.525627 108.618149,53.245968 
	C108.707314,52.760513 108.796478,52.275055 109.053101,51.363396 
	C109.053101,51.363396 108.916992,50.926167 108.910316,50.367306 
	C108.572777,49.919849 108.235229,49.472397 108.033714,48.353024 
	C108.048462,47.896812 108.063217,47.440598 108.560822,46.938118 
	C108.825287,46.794205 109.089745,46.650291 109.354210,46.506378 
	C108.946564,46.335228 108.538910,46.164078 108.080818,45.206604 
	C108.173325,44.161793 108.265839,43.116982 109.062767,41.989048 
	C113.729691,38.394447 115.855316,33.911438 113.987274,27.253551 
	C113.684113,24.519342 113.380951,21.785133 113.058212,18.357954 
	C112.379402,17.233835 111.700600,16.109716 110.918411,14.302260 
	C109.891525,13.271916 108.678040,12.368474 107.874168,11.186461 
	C105.802490,8.140254 104.282227,8.155181 102.830597,11.660713 
	C101.665161,14.475139 100.277168,17.197407 98.271973,20.006121 
	C94.835289,22.321775 91.398605,24.637430 87.298256,26.785849 
	C86.778465,25.789768 86.258667,24.793688 85.723679,23.166376 
	C83.453323,21.794926 81.182968,20.423475 78.208145,18.852802 
	C77.123940,19.148523 76.039742,19.444244 74.443291,19.880381 
	C74.279884,19.948521 74.116478,20.016663 73.332939,19.880219 
	C72.902077,19.917189 72.471214,19.954157 71.303001,19.922276 
	C70.837128,20.593460 70.371254,21.264645 69.960342,22.004910 
	C69.960342,22.004910 69.947586,21.917568 69.229988,21.874813 
z"/>
<path fill="#0E0E0C" opacity="1.000000" stroke="none" 
	d="
M65.017288,64.009804 
	C65.172112,60.889732 65.326942,57.769665 65.215958,53.903549 
	C64.578445,51.308247 64.206734,49.458984 64.173637,47.310005 
	C65.011467,45.664669 65.510696,44.319050 66.007614,42.732067 
	C66.005295,42.490700 66.004723,42.007942 66.002365,42.003746 
	C66.000000,41.999546 66.009697,42.003948 66.342575,41.954399 
	C67.092209,41.204536 67.508965,40.504219 67.906784,39.540043 
	C67.893921,38.925697 67.900009,38.575211 68.039429,37.959568 
	C68.487213,37.463570 68.801674,37.232731 69.243042,37.341496 
	C70.782692,41.744816 71.538368,46.345669 77.002045,47.446743 
	C73.802734,48.976860 70.642982,50.125668 65.914139,51.844955 
	C69.826492,53.601379 72.427444,54.769062 74.379585,55.645462 
	C76.962929,54.343292 78.970764,53.331215 80.735168,52.531456 
	C80.575012,53.609680 80.528740,55.188522 80.761681,55.230854 
	C83.009529,55.639343 85.304344,55.789433 87.585732,56.013397 
	C88.143127,58.730526 88.700523,61.447651 88.843956,64.536194 
	C86.832169,64.023865 85.234344,63.140118 83.636520,62.256371 
	C84.635361,65.550766 86.370262,67.680382 89.997002,67.036575 
	C94.303146,71.866898 94.926163,77.604164 93.733192,83.784767 
	C93.105644,83.196915 92.844704,82.522621 92.607147,81.483810 
	C91.149002,78.053177 90.246529,74.467514 88.061714,72.032379 
	C83.904449,67.398788 78.321251,65.645157 72.253281,67.961266 
	C67.161415,69.904793 62.825912,72.872108 62.452385,79.310242 
	C62.169434,79.983780 62.056461,80.533890 61.846947,81.573196 
	C61.822311,82.386917 61.894226,82.711456 61.966137,83.036003 
	C58.857441,79.895226 59.533958,76.229675 60.729141,72.636604 
	C61.343464,70.789772 62.491741,69.120560 63.900299,67.449265 
	C66.604332,66.361130 68.806801,65.194809 71.009270,64.028481 
	C70.834778,63.566383 70.660294,63.104286 70.485802,62.642185 
	C68.662964,63.098061 66.840126,63.553932 65.017288,64.009804 
M74.119667,61.227829 
	C74.040215,62.023075 73.960762,62.818317 73.881317,63.613564 
	C76.178917,63.613564 78.476517,63.613564 80.774124,63.613564 
	C80.786308,62.922161 80.798492,62.230759 80.810677,61.539352 
	C78.848541,61.378769 76.886406,61.218182 74.119667,61.227829 
z"/>
<path fill="#DADBDF" opacity="1.000000" stroke="none" 
	d="
M44.528164,41.016434 
	C43.225941,39.429989 41.373650,38.041256 40.719685,36.221809 
	C38.291958,29.467463 38.989296,17.500071 45.702858,11.669380 
	C46.437485,11.031360 46.950954,10.138696 48.381569,8.339991 
	C51.013657,12.204454 53.443230,15.771586 55.677223,19.855009 
	C56.001938,20.900143 56.522232,21.428988 57.042522,21.957832 
	C57.042522,21.957832 57.013096,21.985449 56.978630,22.327515 
	C55.919895,23.696245 54.895622,24.722908 53.871346,25.749573 
	C51.444057,22.251663 49.298042,26.250454 46.948769,25.636747 
	C46.461906,23.493856 46.019161,21.721867 45.437195,19.392668 
	C43.803860,22.567911 43.918530,24.676182 47.016174,26.382416 
	C47.894997,30.009686 51.409424,33.466770 46.242817,36.204182 
	C46.603966,36.855690 46.965115,37.507195 47.200844,38.487236 
	C46.226334,39.549324 45.377251,40.282879 44.528164,41.016434 
z"/>
<path fill="#0D0C03" opacity="1.000000" stroke="none" 
	d="
M90.371170,89.717560 
	C88.465271,91.072586 86.559372,92.427620 84.248413,93.496941 
	C83.761932,93.010475 83.680504,92.809731 83.690536,92.275215 
	C83.494629,90.635727 83.207237,89.329994 83.214737,87.984299 
	C83.855949,87.650391 84.202255,87.356445 84.548561,87.062492 
	C84.080551,86.708534 83.612549,86.354576 83.120972,85.607773 
	C83.088753,80.682724 80.137627,79.005516 76.346764,79.356781 
	C72.814041,79.684113 70.172935,81.666077 70.758652,86.042145 
	C69.827065,88.460510 69.243805,90.826340 68.660545,93.192162 
	C66.755005,91.686996 64.849464,90.181839 63.332966,88.155807 
	C63.796257,86.449341 63.870510,85.263733 64.147278,83.788132 
	C64.902794,82.038376 65.455795,80.578629 66.241501,78.870529 
	C73.527672,70.039070 80.366203,69.633873 86.652153,77.464302 
	C87.480637,78.496338 88.109711,79.688469 88.629944,81.167618 
	C89.076218,84.258369 89.723694,86.987968 90.371170,89.717560 
z"/>
<path fill="#1D1A11" opacity="1.000000" stroke="none" 
	d="
M87.803497,55.721542 
	C85.304344,55.789433 83.009529,55.639343 80.761681,55.230854 
	C80.528740,55.188522 80.575012,53.609680 81.016670,52.446995 
	C81.713341,52.055943 81.885078,51.961666 82.400612,51.860542 
	C83.730522,51.456314 84.716629,51.058926 85.702736,50.661541 
	C85.612534,50.360832 85.522324,50.060127 85.432114,49.759418 
	C84.164787,50.072742 82.897461,50.386063 81.431931,50.485420 
	C80.131584,49.186237 79.029442,48.101025 78.232697,46.845360 
	C80.332329,44.314304 82.564224,42.154854 83.772888,39.525108 
	C84.634171,37.651184 84.684479,34.816250 81.091705,34.381470 
	C81.084419,33.553959 81.082901,33.078758 81.232109,32.590149 
	C81.382835,32.576740 81.673721,32.660324 81.912247,32.741901 
	C82.287842,32.730808 82.424911,32.638138 82.561981,32.545464 
	C82.290268,32.431950 82.018555,32.318432 81.680084,31.901848 
	C81.332878,31.097700 81.052422,30.596621 80.722656,29.797474 
	C80.116882,29.441578 79.560425,29.383749 78.757271,29.132442 
	C79.041939,28.142216 79.573311,27.345465 80.436371,26.679104 
	C82.424995,25.805534 84.081932,24.801571 85.738876,23.797606 
	C86.258667,24.793688 86.778465,25.789768 87.580597,26.930908 
	C87.862946,27.075970 87.948318,27.209166 88.014587,27.630798 
	C88.718910,30.702959 89.356956,33.353489 89.872353,36.265476 
	C88.840256,37.690342 86.994392,39.050835 87.190292,39.981594 
	C87.882668,43.271240 88.201233,47.148708 92.669411,48.349838 
	C92.764252,48.577366 93.128250,48.909882 93.128250,48.909882 
	C91.425926,51.083149 89.723595,53.256416 87.803497,55.721542 
z"/>
<path fill="#27261E" opacity="1.000000" stroke="none" 
	d="
M68.889336,93.467941 
	C69.243805,90.826340 69.827065,88.460510 71.110916,86.041451 
	C73.115898,85.737762 74.420280,85.487305 75.679108,85.570099 
	C72.603371,90.734550 76.224365,97.951942 82.160530,98.912964 
	C86.106003,100.422157 90.051476,101.931351 94.111916,103.484520 
	C84.612900,107.723694 77.681503,105.433372 72.744781,96.786354 
	C72.010925,95.500938 70.350098,94.744759 68.889336,93.467941 
z"/>
<path fill="#C5C7CD" opacity="1.000000" stroke="none" 
	d="
M46.992882,26.007648 
	C49.298042,26.250454 51.444057,22.251663 53.871346,25.749573 
	C54.895622,24.722908 55.919895,23.696245 56.996643,22.310307 
	C59.590450,23.145653 62.131779,24.340275 64.831917,26.039946 
	C64.990723,26.544994 64.856194,26.992645 64.487793,27.011261 
	C63.009880,27.344540 61.900364,27.659204 60.504456,28.123203 
	C59.132145,29.521839 58.046223,30.771143 56.614258,32.039692 
	C54.797096,33.363228 53.325974,34.667519 51.561447,36.067337 
	C50.497803,36.766052 49.727570,37.369244 48.974133,37.972195 
	C48.990932,37.971958 48.967422,37.938072 48.697105,38.000435 
	C48.059948,38.094769 47.693104,38.126736 47.326263,38.158703 
	C46.965115,37.507195 46.603966,36.855690 46.242817,36.204182 
	C51.409424,33.466770 47.894997,30.009686 47.012386,26.385914 
	C47.000000,26.000017 46.992882,26.007648 46.992882,26.007648 
z"/>
<path fill="#CDCFD4" opacity="1.000000" stroke="none" 
	d="
M111.021790,14.985600 
	C111.700600,16.109716 112.379402,17.233835 112.679771,18.734974 
	C111.161087,21.229967 110.020844,23.347942 108.701500,25.798586 
	C107.820694,25.435905 106.623596,24.942993 105.539413,24.496572 
	C103.895607,27.950668 102.440460,31.008345 100.706085,33.892891 
	C99.371384,32.807365 98.315918,31.894970 97.523422,30.792271 
	C99.770515,26.687363 105.204834,24.618021 103.996941,18.997311 
	C103.999664,18.999823 103.994888,18.994232 104.249573,18.996176 
	C104.674042,18.998514 104.843842,18.998911 105.066498,19.329845 
	C106.070122,19.168444 107.137039,18.817085 107.943626,18.150640 
	C109.071442,17.218781 110.005074,16.051918 111.021790,14.985600 
z"/>
<path fill="#D3D4D9" opacity="1.000000" stroke="none" 
	d="
M113.946846,28.018148 
	C115.855316,33.911438 113.729691,38.394447 108.547806,41.692581 
	C107.548378,40.878536 107.063896,40.360954 106.457489,39.685688 
	C105.979935,39.331512 105.624298,39.135021 105.147888,38.638672 
	C104.687805,37.566162 104.348488,36.793503 104.307068,35.870510 
	C107.069473,33.147537 109.533974,30.574902 112.323517,28.002056 
	C113.081329,28.007280 113.514084,28.012714 113.946846,28.018148 
z"/>
<path fill="#D3D4D9" opacity="1.000000" stroke="none" 
	d="
M103.994217,18.994797 
	C105.204834,24.618021 99.770515,26.687363 97.361801,30.467503 
	C94.226624,28.469604 92.342461,24.228182 87.948318,27.209166 
	C87.948318,27.209166 87.862946,27.075970 87.912430,27.014526 
	C91.398605,24.637430 94.835289,22.321775 98.814606,20.235676 
	C100.902901,19.975086 102.448563,19.484941 103.994217,18.994797 
z"/>
<path fill="#DDDEE2" opacity="1.000000" stroke="none" 
	d="
M103.996941,18.997311 
	C102.448563,19.484941 100.902901,19.975086 99.172592,20.212900 
	C100.277168,17.197407 101.665161,14.475139 102.830597,11.660713 
	C104.282227,8.155181 105.802490,8.140254 107.874168,11.186461 
	C108.678040,12.368474 109.891525,13.271916 110.970100,14.643930 
	C110.005074,16.051918 109.071442,17.218781 107.943626,18.150640 
	C107.137039,18.817085 106.070122,19.168444 105.283585,19.166382 
	C105.389816,18.269388 105.331810,17.866402 105.273796,17.463413 
	C104.847496,17.973684 104.421188,18.483957 103.994888,18.994232 
	C103.994888,18.994232 103.999664,18.999823 103.996941,18.997311 
z"/>
<path fill="#907D43" opacity="1.000000" stroke="none" 
	d="
M47.200844,38.487236 
	C47.693104,38.126736 48.059948,38.094769 48.708553,38.357471 
	C48.879135,39.692497 48.767952,40.732857 48.643406,41.898258 
	C50.947289,41.552067 52.836441,41.268192 54.809505,41.211769 
	C54.893421,41.439217 55.021084,41.906982 54.716995,41.943798 
	C53.899849,42.273018 53.386787,42.565422 52.645691,42.926888 
	C51.998386,43.215347 51.579113,43.434742 50.872650,43.745872 
	C50.387184,43.870560 50.188911,43.903511 49.635864,43.896034 
	C48.526569,44.272388 47.772049,44.689167 46.989525,45.441376 
	C46.952007,46.225082 46.942497,46.673355 46.740448,47.191212 
	C46.712231,47.502060 46.876553,47.743328 47.019623,47.992432 
	C46.998375,48.000271 47.020103,47.960522 46.990089,48.306793 
	C47.649353,49.126556 48.338627,49.600044 49.290573,50.183022 
	C50.055759,50.558556 50.558273,50.824593 51.022301,51.457497 
	C49.634388,53.294247 48.284954,54.764133 46.935524,56.234016 
	C46.174068,53.786709 45.144672,51.383690 44.730698,48.878956 
	C44.358040,46.624210 44.660213,44.257927 44.596451,41.478638 
	C45.377251,40.282879 46.226334,39.549324 47.200844,38.487236 
z"/>
<path fill="#DDDEE2" opacity="1.000000" stroke="none" 
	d="
M113.967056,27.635849 
	C113.514084,28.012714 113.081329,28.007280 111.925827,28.001293 
	C109.468285,28.823116 107.538239,29.391922 106.051620,30.536613 
	C104.449615,31.770163 103.262901,33.543068 101.663147,34.992611 
	C101.116257,34.713516 100.967590,34.434006 100.985313,34.066021 
	C102.440460,31.008345 103.895607,27.950668 105.539413,24.496572 
	C106.623596,24.942993 107.820694,25.435905 108.701500,25.798586 
	C110.020844,23.347942 111.161087,21.229967 112.689560,19.081459 
	C113.380951,21.785133 113.684113,24.519342 113.967056,27.635849 
z"/>
<path fill="#B28D18" opacity="1.000000" stroke="none" 
	d="
M81.673721,32.660324 
	C81.673721,32.660324 81.382835,32.576740 81.250626,32.404625 
	C81.118408,32.232513 80.945732,31.893715 80.897629,31.841370 
	C80.849518,31.789022 80.847786,31.808111 80.613998,31.844009 
	C80.380211,31.879910 79.928917,32.021740 79.490463,32.026207 
	C77.543259,32.026676 76.034515,32.022675 74.281509,31.950413 
	C73.695229,31.337000 73.353218,30.791849 73.380417,30.203030 
	C74.510895,29.100172 75.272156,28.040987 76.199142,26.746813 
	C76.675453,26.211763 76.986038,25.911701 77.296623,25.611639 
	C76.533096,25.346796 75.769577,25.081955 74.760376,24.579439 
	C73.383583,24.279619 72.252449,24.217474 71.103523,23.796400 
	C71.058243,22.959129 71.030769,22.480787 71.355072,22.026615 
	C72.455597,21.395458 73.204338,20.740129 73.953072,20.084803 
	C74.116478,20.016663 74.279884,19.948521 74.885910,20.142025 
	C76.559296,20.632992 77.790047,20.862314 79.217522,21.336182 
	C80.619331,22.555668 81.824425,23.530609 83.155327,24.607332 
	C81.846489,25.440252 80.975586,25.994482 80.104675,26.548712 
	C79.573311,27.345465 79.041939,28.142216 78.920090,29.325056 
	C79.810402,29.839275 80.291191,29.967407 80.771973,30.095539 
	C81.052422,30.596621 81.332878,31.097700 81.656067,32.013226 
	C81.698799,32.427673 81.673721,32.660324 81.673721,32.660324 
z"/>
<path fill="#E30818" opacity="1.000000" stroke="none" 
	d="
M46.940559,56.615768 
	C48.284954,54.764133 49.634388,53.294247 51.294720,51.513260 
	C52.208252,50.797615 52.810883,50.393078 53.439785,49.988686 
	C53.466053,49.988834 53.518517,49.974178 53.623264,50.290611 
	C54.060600,50.888397 54.393188,51.169754 54.687218,51.754242 
	C55.756199,52.797852 56.863743,53.538322 57.795738,54.532360 
	C57.091770,56.078747 56.563354,57.371571 56.034935,58.664391 
	C51.468048,62.872059 48.792965,62.381481 46.940559,56.615768 
z"/>
<path fill="#EC0C1B" opacity="1.000000" stroke="none" 
	d="
M104.060455,57.598274 
	C103.302673,58.467861 102.704674,59.727074 101.750710,60.118301 
	C100.209915,60.750198 98.230675,61.399067 96.828453,60.912197 
	C95.845001,60.570736 95.227005,58.402756 94.967896,56.956894 
	C94.683029,55.367313 94.996399,53.670525 95.402382,51.732330 
	C97.879295,52.265678 100.002960,53.087135 102.405548,54.066521 
	C103.143143,55.349052 103.601799,56.473663 104.060455,57.598274 
z"/>
<path fill="#5A595A" opacity="1.000000" stroke="none" 
	d="
M82.116661,98.542473 
	C76.224365,97.951942 72.603371,90.734550 76.030060,85.501038 
	C77.576309,85.792343 78.726036,86.485970 79.908936,87.585907 
	C80.313087,90.491226 80.684067,92.990242 81.049194,95.486786 
	C81.043343,95.484322 81.036049,95.443459 81.036049,95.443459 
	C81.381630,96.352966 81.727211,97.262474 82.116661,98.542473 
z"/>
<path fill="#100D06" opacity="1.000000" stroke="none" 
	d="
M64.856194,26.992645 
	C64.856194,26.992645 64.990723,26.544994 65.003922,26.311638 
	C66.091354,25.704346 67.165596,25.330408 68.823723,24.958380 
	C69.598511,25.014109 69.789413,25.067926 69.963501,25.399021 
	C69.608955,26.308353 69.271225,26.940411 68.865692,27.990788 
	C69.238396,30.274960 69.678886,32.140808 69.826691,34.178482 
	C69.394714,35.234165 69.255417,36.118027 69.116127,37.001892 
	C68.801674,37.232731 68.487213,37.463570 67.753372,38.009369 
	C66.655647,37.499538 65.668533,36.770123 65.376892,35.825897 
	C65.009926,34.637825 65.211693,33.274097 65.113770,31.608063 
	C64.979485,30.470865 64.899475,29.711767 64.868530,28.723339 
	C64.917595,28.494009 64.820168,28.035204 64.879303,27.776295 
	C64.911034,27.342474 64.883614,27.167559 64.856194,26.992645 
z"/>
<path fill="#9B9012" opacity="1.000000" stroke="none" 
	d="
M90.649887,89.652878 
	C89.723694,86.987968 89.076218,84.258369 88.890839,81.284561 
	C90.429878,81.309669 91.506821,81.578995 92.583763,81.848312 
	C92.844704,82.522621 93.105644,83.196915 93.583176,84.173996 
	C92.842712,86.180588 91.885666,87.884384 90.649887,89.652878 
z"/>
<path fill="#9D9FA2" opacity="1.000000" stroke="none" 
	d="
M63.835030,47.609722 
	C64.206734,49.458984 64.578445,51.308247 64.978523,53.575962 
	C63.625118,53.696125 62.243343,53.397839 60.530384,52.686558 
	C60.353275,51.143745 60.507347,50.013927 60.726273,48.805790 
	C60.791126,48.727474 60.888786,48.315338 61.152573,48.121346 
	C61.984764,47.643078 62.553169,47.358803 63.213379,47.200191 
	C63.452534,47.475227 63.629150,47.569847 63.835030,47.609722 
z"/>
<path fill="#714E4F" opacity="1.000000" stroke="none" 
	d="
M60.661423,48.884106 
	C60.507347,50.013927 60.353275,51.143745 60.174698,52.706123 
	C59.332840,55.387756 58.515488,57.636833 57.698132,59.885910 
	C57.266823,59.610355 56.835514,59.334805 56.219570,58.861820 
	C56.563354,57.371571 57.091770,56.078747 57.833336,54.477104 
	C58.046482,54.168285 58.096523,54.044346 58.358803,53.793610 
	C58.698299,52.581337 58.775520,51.619804 58.833824,50.556866 
	C58.814907,50.455463 58.778450,50.252411 58.829163,49.944756 
	C58.927193,49.434681 58.974510,49.232265 59.430916,48.984222 
	C60.113804,48.920425 60.387615,48.902264 60.661423,48.884106 
z"/>
<path fill="#EC0C1B" opacity="1.000000" stroke="none" 
	d="
M96.019707,49.984989 
	C96.019707,49.984989 96.004234,49.545956 96.113571,49.065144 
	C96.459122,47.321484 96.695328,46.058632 97.322723,44.863022 
	C98.504234,44.903675 99.294556,44.877098 100.391701,44.928810 
	C101.110512,45.098900 101.522499,45.190701 101.937347,45.420742 
	C101.940208,45.558983 101.932449,45.835411 101.831177,46.156952 
	C101.510178,47.337852 101.290451,48.197208 100.959641,49.279221 
	C100.848557,49.501881 100.624306,49.946148 100.245209,49.956444 
	C98.583977,49.972820 97.301842,49.978905 96.019707,49.984989 
z"/>
<path fill="#AB8921" opacity="1.000000" stroke="none" 
	d="
M80.436371,26.679104 
	C80.975586,25.994482 81.846489,25.440252 83.155327,24.607332 
	C81.824425,23.530609 80.619331,22.555668 79.211716,20.994350 
	C78.976997,19.955994 78.944801,19.504009 78.912613,19.052025 
	C81.182968,20.423475 83.453323,21.794926 85.731277,23.481991 
	C84.081932,24.801571 82.424995,25.805534 80.436371,26.679104 
z"/>
<path fill="#5F3926" opacity="1.000000" stroke="none" 
	d="
M100.624306,49.946148 
	C100.624306,49.946148 100.848557,49.501881 101.189514,49.270092 
	C101.530472,49.038303 101.990898,49.027260 102.007172,49.334530 
	C102.360176,50.111248 102.696907,50.580696 103.127296,51.289700 
	C103.498528,51.724598 103.776085,51.919937 104.058167,52.406227 
	C104.379433,53.134918 104.696198,53.572655 105.129074,54.351326 
	C106.241302,55.117588 107.237427,55.542923 108.233551,55.968254 
	C107.496185,57.176384 106.758827,58.384514 105.944702,59.718414 
	C105.386444,59.113941 104.895851,58.582745 104.232864,57.824913 
	C103.601799,56.473663 103.143143,55.349052 102.371964,53.714622 
	C101.581062,52.118587 101.102684,51.032368 100.624306,49.946148 
z"/>
<path fill="#181607" opacity="1.000000" stroke="none" 
	d="
M64.840149,64.281158 
	C66.840126,63.553932 68.662964,63.098061 70.485802,62.642185 
	C70.660294,63.104286 70.834778,63.566383 71.009270,64.028481 
	C68.806801,65.194809 66.604332,66.361130 64.209160,67.293945 
	C64.231972,66.224457 64.447487,65.388481 64.840149,64.281158 
z"/>
<path fill="#181607" opacity="1.000000" stroke="none" 
	d="
M89.960190,66.745972 
	C86.370262,67.680382 84.635361,65.550766 83.636520,62.256371 
	C85.234344,63.140118 86.832169,64.023865 88.730888,64.938553 
	C89.328979,65.464790 89.626175,65.960083 89.960190,66.745972 
z"/>
<path fill="#39321D" opacity="1.000000" stroke="none" 
	d="
M81.320526,95.537491 
	C81.036049,95.443459 81.043343,95.484322 81.050812,95.012123 
	C81.044548,92.084496 81.030823,89.629059 81.323418,87.078186 
	C82.134674,86.655373 82.639610,86.327995 83.144547,86.000618 
	C83.612549,86.354576 84.080551,86.708534 84.548561,87.062492 
	C84.202255,87.356445 83.855949,87.650391 82.942352,88.198524 
	C82.783073,89.838135 83.191071,91.223557 83.599068,92.608978 
	C83.680504,92.809731 83.761932,93.010475 83.900391,93.531143 
	C83.173286,94.444557 82.389153,95.038040 81.320526,95.537491 
z"/>
<path fill="#E76C75" opacity="1.000000" stroke="none" 
	d="
M100.245209,49.956444 
	C101.102684,51.032368 101.581062,52.118587 102.093033,53.556698 
	C100.002960,53.087135 97.879295,52.265678 95.456024,51.289566 
	C95.264336,50.803032 95.372261,50.471157 95.749947,50.062134 
	C97.301842,49.978905 98.583977,49.972820 100.245209,49.956444 
z"/>
<path fill="#A58113" opacity="1.000000" stroke="none" 
	d="
M105.012955,54.010391 
	C104.696198,53.572655 104.379433,53.134918 104.301697,52.248428 
	C105.051239,51.229225 105.561768,50.658775 106.290604,50.051147 
	C106.508904,50.013973 106.942940,49.925827 107.093994,50.185696 
	C107.802361,50.605766 108.359680,50.765965 108.916992,50.926167 
	C108.916992,50.926167 109.053101,51.363396 108.645889,51.665962 
	C107.161331,52.649658 106.083977,53.330788 105.003616,54.006226 
	C105.000610,54.000538 105.012955,54.010391 105.012955,54.010391 
z"/>
<path fill="#907D43" opacity="1.000000" stroke="none" 
	d="
M108.490463,55.805405 
	C107.237427,55.542923 106.241302,55.117588 105.129074,54.351326 
	C105.012955,54.010391 105.000610,54.000538 105.339417,54.058990 
	C106.582611,54.067345 107.487007,54.017254 108.391388,53.967159 
	C108.510056,54.525627 108.628716,55.084091 108.490463,55.805405 
z"/>
<path fill="#CAA633" opacity="1.000000" stroke="none" 
	d="
M78.560379,18.952414 
	C78.944801,19.504009 78.976997,19.955994 79.014999,20.749807 
	C77.790047,20.862314 76.559296,20.632992 75.142036,20.071819 
	C76.039742,19.444244 77.123940,19.148523 78.560379,18.952414 
z"/>
<path fill="#C49C1A" opacity="1.000000" stroke="none" 
	d="
M63.944763,84.078125 
	C63.870510,85.263733 63.796257,86.449341 63.409153,87.806038 
	C62.674976,86.582283 62.253654,85.187447 61.899235,83.414307 
	C61.894226,82.711456 61.822311,82.386917 61.918915,82.076485 
	C62.706543,82.753105 63.325657,83.415611 63.944763,84.078125 
z"/>
<path fill="#625635" opacity="1.000000" stroke="none" 
	d="
M106.579414,39.843369 
	C107.063896,40.360954 107.548378,40.878536 108.195602,41.734146 
	C108.265839,43.116982 108.173325,44.161793 108.061813,45.500237 
	C108.042809,45.793869 107.826195,45.816753 107.570107,45.695374 
	C106.598167,45.456192 105.882309,45.338394 105.135216,44.893581 
	C105.081169,44.348755 105.058357,44.130943 105.392761,43.845734 
	C106.026443,42.466679 106.302933,41.155025 106.579414,39.843369 
z"/>
<path fill="#8F7421" opacity="1.000000" stroke="none" 
	d="
M93.440735,48.970253 
	C93.128250,48.909882 92.764252,48.577366 92.791611,47.996300 
	C93.502007,46.662052 94.185043,45.908871 94.898773,45.526817 
	C94.957588,46.888348 94.985710,47.878746 95.013832,48.869148 
	C94.593628,48.922977 94.173431,48.976803 93.440735,48.970253 
z"/>
<path fill="#5D2F11" opacity="1.000000" stroke="none" 
	d="
M95.241531,48.940666 
	C94.985710,47.878746 94.957588,46.888348 94.942719,45.242596 
	C94.968773,44.396858 94.981575,44.206474 95.237762,43.955761 
	C95.646370,43.869926 95.811577,43.844414 96.193916,43.929836 
	C96.411049,44.040768 96.858673,44.230362 96.875931,44.371841 
	C96.893188,44.513321 96.931534,44.795784 96.931534,44.795784 
	C96.695328,46.058632 96.459122,47.321484 96.079453,48.848156 
	C95.935989,49.111980 95.469223,49.012188 95.241531,48.940666 
z"/>
<path fill="#5F3926" opacity="1.000000" stroke="none" 
	d="
M108.504776,53.606564 
	C107.487007,54.017254 106.582611,54.067345 105.342422,54.064674 
	C106.083977,53.330788 107.161331,52.649658 108.562164,51.879066 
	C108.796478,52.275055 108.707314,52.760513 108.504776,53.606564 
z"/>
<path fill="#CAA633" opacity="1.000000" stroke="none" 
	d="
M69.980309,25.121746 
	C69.789413,25.067926 69.598511,25.014109 69.150803,24.811150 
	C68.776443,24.334435 68.779594,24.008024 69.215790,23.306726 
	C69.667969,22.592972 69.807770,22.255268 69.947586,21.917568 
	C69.947586,21.917568 69.960342,22.004910 70.185402,21.984179 
	C70.577370,21.939926 70.744286,21.916407 70.934143,21.920345 
	C70.957085,21.947802 71.003288,22.002445 71.003288,22.002445 
	C71.030769,22.480787 71.058243,22.959129 71.015610,23.950703 
	C70.945503,24.463932 70.815926,24.795759 70.596230,24.849123 
	C70.376534,24.902487 69.980309,25.121746 69.980309,25.121746 
z"/>
<path fill="#CAA633" opacity="1.000000" stroke="none" 
	d="
M73.643005,19.982510 
	C73.204338,20.740129 72.455597,21.395458 71.355072,22.026615 
	C71.003288,22.002445 70.957085,21.947802 71.051880,21.668331 
	C71.444565,20.922947 71.742455,20.457035 72.040352,19.991125 
	C72.471214,19.954157 72.902077,19.917189 73.643005,19.982510 
z"/>
<path fill="#51410F" opacity="1.000000" stroke="none" 
	d="
M106.942940,49.925827 
	C106.942940,49.925827 106.508904,50.013973 106.275803,49.605770 
	C106.034714,48.900738 106.026718,48.603909 106.144775,48.155518 
	C106.511665,47.684845 106.752518,47.365734 107.193146,47.005028 
	C107.392929,46.963428 107.801041,46.967461 107.866745,47.029320 
	C107.932457,47.091183 108.077965,46.984386 108.077965,46.984386 
	C108.063217,47.440598 108.048462,47.896812 107.749634,48.766006 
	C107.225464,49.381824 107.051254,49.630772 106.942940,49.925827 
z"/>
<path fill="#C09D2D" opacity="1.000000" stroke="none" 
	d="
M107.093994,50.185696 
	C107.051254,49.630772 107.225464,49.381824 107.681625,49.101967 
	C108.235229,49.472397 108.572777,49.919849 108.913651,50.646736 
	C108.359680,50.765965 107.802361,50.605766 107.093994,50.185696 
z"/>
<path fill="#6F6854" opacity="1.000000" stroke="none" 
	d="
M71.671677,19.956699 
	C71.742455,20.457035 71.444565,20.922947 71.028931,21.640873 
	C70.744286,21.916407 70.577370,21.939926 70.157913,21.949638 
	C70.371254,21.264645 70.837128,20.593460 71.671677,19.956699 
z"/>
<path fill="#C5C7CD" opacity="1.000000" stroke="none" 
	d="
M56.983788,21.683327 
	C56.522232,21.428988 56.001938,20.900143 55.718807,20.207455 
	C56.278999,20.498680 56.602024,20.953751 56.983788,21.683327 
z"/>
<path fill="#D3D4D9" opacity="1.000000" stroke="none" 
	d="
M108.087036,45.893398 
	C108.538910,46.164078 108.946564,46.335228 109.354210,46.506378 
	C109.089745,46.650291 108.825287,46.794205 108.319397,46.961250 
	C108.077965,46.984386 107.932457,47.091183 107.920235,46.743446 
	C107.880737,46.202724 107.853470,46.009739 107.826195,45.816753 
	C107.826195,45.816753 108.042809,45.793869 108.087036,45.893398 
z"/>
<path fill="#6F6854" opacity="1.000000" stroke="none" 
	d="
M69.588783,21.896191 
	C69.807770,22.255268 69.667969,22.592972 69.280914,23.066441 
	C69.099113,22.759741 69.164551,22.317276 69.588783,21.896191 
z"/>
<path fill="#E8D706" opacity="1.000000" stroke="none" 
	d="
M92.607147,81.483810 
	C91.506821,81.578995 90.429878,81.309669 89.092041,80.923401 
	C88.109711,79.688469 87.480637,78.496338 86.652153,77.464302 
	C80.366203,69.633873 73.527672,70.039070 65.819656,78.825058 
	C64.317535,79.080887 63.469952,79.133850 62.622372,79.186821 
	C62.825912,72.872108 67.161415,69.904793 72.253281,67.961266 
	C78.321251,65.645157 83.904449,67.398788 88.061714,72.032379 
	C90.246529,74.467514 91.149002,78.053177 92.607147,81.483810 
z"/>
<path fill="#A58113" opacity="1.000000" stroke="none" 
	d="
M69.243042,37.341496 
	C69.255417,36.118027 69.394714,35.234165 70.025246,34.027443 
	C70.703186,33.429241 70.889893,33.153896 71.387604,32.933876 
	C72.447212,33.361599 73.195831,33.734005 74.090164,34.316437 
	C74.494926,34.748547 74.753952,34.970631 75.230469,35.416939 
	C76.566162,35.511513 77.684364,35.381863 79.071121,35.138832 
	C79.516418,34.944702 79.693176,34.863945 80.177734,34.793488 
	C80.689507,34.780453 80.893486,34.757118 81.097473,34.733780 
	C84.684479,34.816250 84.634171,37.651184 83.772888,39.525108 
	C82.564224,42.154854 80.332329,44.314304 78.010437,46.840851 
	C77.482788,47.006790 77.041595,47.065430 77.041595,47.065430 
	C71.538368,46.345669 70.782692,41.744816 69.243042,37.341496 
z"/>
<path fill="#747473" opacity="1.000000" stroke="none" 
	d="
M77.002045,47.446743 
	C77.041595,47.065430 77.482788,47.006790 77.705048,47.011299 
	C79.029442,48.101025 80.131584,49.186237 81.565605,50.768017 
	C81.950607,51.465519 82.003716,51.666454 82.056816,51.867390 
	C81.885078,51.961666 81.713341,52.055943 81.260101,52.234680 
	C78.970764,53.331215 76.962929,54.343292 74.379585,55.645462 
	C72.427444,54.769062 69.826492,53.601379 65.914139,51.844955 
	C70.642982,50.125668 73.802734,48.976860 77.002045,47.446743 
z"/>
<path fill="#181607" opacity="1.000000" stroke="none" 
	d="
M74.521973,61.142712 
	C76.886406,61.218182 78.848541,61.378769 80.810677,61.539352 
	C80.798492,62.230759 80.786308,62.922161 80.774124,63.613564 
	C78.476517,63.613564 76.178917,63.613564 73.881317,63.613564 
	C73.960762,62.818317 74.040215,62.023075 74.521973,61.142712 
z"/>
<path fill="#5E4A09" opacity="1.000000" stroke="none" 
	d="
M65.168060,31.986160 
	C65.211693,33.274097 65.009926,34.637825 65.376892,35.825897 
	C65.668533,36.770123 66.655647,37.499538 67.620041,38.274525 
	C67.900009,38.575211 67.893921,38.925697 67.534142,39.617249 
	C66.171410,40.008076 65.162369,40.057835 64.061325,40.041363 
	C63.969315,39.975132 63.785866,39.841896 63.797401,39.529488 
	C63.221889,38.152592 62.634838,37.088104 62.310448,35.893814 
	C63.052670,35.180408 63.532230,34.596802 64.059982,33.701454 
	C64.461464,32.921860 64.814758,32.454010 65.168060,31.986160 
z"/>
<path fill="#5E4A09" opacity="1.000000" stroke="none" 
	d="
M64.173637,47.310005 
	C63.629150,47.569847 63.452534,47.475227 63.157085,46.835083 
	C62.651955,45.188335 62.294922,44.032368 61.962463,42.898827 
	C61.987041,42.921257 61.958241,42.981251 62.223412,42.829956 
	C62.648174,42.306030 62.807766,41.933395 62.971176,41.311111 
	C63.245285,40.654942 63.515575,40.248421 63.785866,39.841896 
	C63.785866,39.841896 63.969315,39.975132 64.212494,40.265446 
	C64.973686,41.038486 65.491692,41.521217 66.009697,42.003948 
	C66.009697,42.003948 66.000000,41.999546 65.824898,42.088120 
	C65.769836,42.442272 65.889885,42.707851 66.009926,42.973434 
	C65.510696,44.319050 65.011467,45.664669 64.173637,47.310005 
z"/>
<path fill="#181607" opacity="1.000000" stroke="none" 
	d="
M62.452385,79.310242 
	C63.469952,79.133850 64.317535,79.080887 65.586960,79.073395 
	C65.455795,80.578629 64.902794,82.038376 64.147278,83.788132 
	C63.325657,83.415611 62.706543,82.753105 62.015461,81.587296 
	C62.056461,80.533890 62.169434,79.983780 62.452385,79.310242 
z"/>
<path fill="#100D06" opacity="1.000000" stroke="none" 
	d="
M66.342575,41.954399 
	C65.491692,41.521217 64.973686,41.038486 64.304504,40.331676 
	C65.162369,40.057835 66.171410,40.008076 67.553085,39.881111 
	C67.508965,40.504219 67.092209,41.204536 66.342575,41.954399 
z"/>
<path fill="#100D06" opacity="1.000000" stroke="none" 
	d="
M66.007614,42.732067 
	C65.889885,42.707851 65.769836,42.442272 65.827255,42.092316 
	C66.004723,42.007942 66.005295,42.490700 66.007614,42.732067 
z"/>
<path fill="#C5C7CD" opacity="1.000000" stroke="none" 
	d="
M47.003788,25.996517 
	C43.918530,24.676182 43.803860,22.567911 45.437195,19.392668 
	C46.019161,21.721867 46.461906,23.493856 46.948769,25.636747 
	C46.992882,26.007648 47.000000,26.000017 47.003788,25.996517 
z"/>
<path fill="#E5D405" opacity="1.000000" stroke="none" 
	d="
M83.120972,85.607773 
	C82.639610,86.327995 82.134674,86.655373 81.037903,87.033951 
	C80.255974,87.116631 80.065872,87.148109 79.875763,87.179596 
	C78.726036,86.485970 77.576309,85.792343 76.075623,85.167786 
	C74.420280,85.487305 73.115898,85.737762 71.459244,85.988907 
	C70.172935,81.666077 72.814041,79.684113 76.346764,79.356781 
	C80.137627,79.005516 83.088753,80.682724 83.120972,85.607773 
z"/>
<path fill="#97760D" opacity="1.000000" stroke="none" 
	d="
M83.690536,92.275215 
	C83.191071,91.223557 82.783073,89.838135 82.647461,88.238495 
	C83.207237,89.329994 83.494629,90.635727 83.690536,92.275215 
z"/>
<path fill="#B58F16" opacity="1.000000" stroke="none" 
	d="
M95.976784,43.818905 
	C95.811577,43.844414 95.646370,43.869926 95.163376,43.620911 
	C93.540009,41.088089 88.810997,40.553516 91.332153,36.368435 
	C90.886436,36.246964 90.440720,36.125492 89.995003,36.004017 
	C89.356956,33.353489 88.718910,30.702959 88.014587,27.630798 
	C92.342461,24.228182 94.226624,28.469604 97.098824,30.657810 
	C98.315918,31.894970 99.371384,32.807365 100.706085,33.892891 
	C100.967590,34.434006 101.116257,34.713516 101.815201,35.268154 
	C102.802467,35.761456 103.405815,35.891151 104.009171,36.020847 
	C104.348488,36.793503 104.687805,37.566162 104.814301,38.808762 
	C104.414803,40.470825 104.228111,41.662945 103.784264,42.846283 
	C103.362755,42.886673 103.198410,42.935837 103.021500,42.991547 
	C103.008919,42.998085 103.015320,42.978283 102.988037,42.718868 
	C102.574112,42.592693 102.187485,42.725937 101.415077,42.898323 
	C99.345131,43.231281 97.660957,43.525093 95.976784,43.818905 
z"/>
<path fill="#5B4910" opacity="1.000000" stroke="none" 
	d="
M89.872353,36.265476 
	C90.440720,36.125492 90.886436,36.246964 91.332153,36.368435 
	C88.810997,40.553516 93.540009,41.088089 94.919983,43.681236 
	C94.981575,44.206474 94.968773,44.396858 94.912018,44.871468 
	C94.185043,45.908871 93.502007,46.662052 92.696777,47.768768 
	C88.201233,47.148708 87.882668,43.271240 87.190292,39.981594 
	C86.994392,39.050835 88.840256,37.690342 89.872353,36.265476 
z"/>
<path fill="#9D9FA2" opacity="1.000000" stroke="none" 
	d="
M82.400612,51.860542 
	C82.003716,51.666454 81.950607,51.465519 81.763809,50.981987 
	C82.897461,50.386063 84.164787,50.072742 85.432114,49.759418 
	C85.522324,50.060127 85.612534,50.360832 85.702736,50.661541 
	C84.716629,51.058926 83.730522,51.456314 82.400612,51.860542 
z"/>
<path fill="#625635" opacity="1.000000" stroke="none" 
	d="
M81.091705,34.381470 
	C80.893486,34.757118 80.689507,34.780453 80.231247,34.451546 
	C79.960953,33.406784 79.944939,32.714264 79.928917,32.021740 
	C79.928917,32.021740 80.380211,31.879910 80.642883,31.857382 
	C80.905556,31.834854 80.945732,31.893715 80.945732,31.893715 
	C80.945732,31.893715 81.118408,32.232513 81.099899,32.418034 
	C81.082901,33.078758 81.084419,33.553959 81.091705,34.381470 
z"/>
<path fill="#8F7421" opacity="1.000000" stroke="none" 
	d="
M80.722656,29.797474 
	C80.291191,29.967407 79.810402,29.839275 79.166794,29.518532 
	C79.560425,29.383749 80.116882,29.441578 80.722656,29.797474 
z"/>
<path fill="#5B4910" opacity="1.000000" stroke="none" 
	d="
M81.912247,32.741901 
	C81.673721,32.660324 81.698799,32.427673 81.722824,32.316296 
	C82.018555,32.318432 82.290268,32.431950 82.561981,32.545464 
	C82.424911,32.638138 82.287842,32.730808 81.912247,32.741901 
z"/>
<path fill="#B28D18" opacity="1.000000" stroke="none" 
	d="
M54.725590,40.984322 
	C52.836441,41.268192 50.947289,41.552067 48.643406,41.898258 
	C48.767952,40.732857 48.879135,39.692497 48.978870,38.295105 
	C48.967422,37.938072 48.990932,37.971958 49.256191,38.062981 
	C50.299252,37.426605 51.077053,36.699207 51.854851,35.971809 
	C53.325974,34.667519 54.797096,33.363228 56.648842,32.363426 
	C57.686485,33.109173 58.343502,33.550434 58.997818,34.316170 
	C58.991474,35.073082 58.987835,35.505520 58.783073,36.121269 
	C58.268379,36.740910 57.954807,37.177231 57.354229,37.748943 
	C56.730072,39.252586 52.979004,38.042072 54.725590,40.984322 
z"/>
<path fill="#D8B33E" opacity="1.000000" stroke="none" 
	d="
M59.000519,33.991692 
	C58.343502,33.550434 57.686485,33.109173 56.994884,32.344177 
	C58.046223,30.771143 59.132145,29.521839 60.910229,28.138134 
	C62.674984,28.014225 63.747574,28.024714 64.820168,28.035204 
	C64.820168,28.035204 64.917595,28.494009 64.517456,28.743439 
	C63.065075,30.323221 62.012844,31.653574 60.795715,33.221848 
	C60.087383,33.637077 59.543949,33.814384 59.000519,33.991692 
z"/>
<path fill="#907D43" opacity="1.000000" stroke="none" 
	d="
M51.561447,36.067337 
	C51.077053,36.699207 50.299252,37.426605 49.239391,38.063217 
	C49.727570,37.369244 50.497803,36.766052 51.561447,36.067337 
z"/>
<path fill="#C09D2D" opacity="1.000000" stroke="none" 
	d="
M64.879303,27.776295 
	C63.747574,28.024714 62.674984,28.014225 61.196617,27.988802 
	C61.900364,27.659204 63.009880,27.344540 64.487793,27.011261 
	C64.883614,27.167559 64.911034,27.342474 64.879303,27.776295 
z"/>
<path fill="#D3D4D9" opacity="1.000000" stroke="none" 
	d="
M104.249573,18.996174 
	C104.421188,18.483957 104.847496,17.973684 105.273796,17.463413 
	C105.331810,17.866402 105.389816,18.269388 105.230728,18.835842 
	C104.843842,18.998911 104.674042,18.998514 104.249573,18.996174 
z"/>
<path fill="#CDCFD4" opacity="1.000000" stroke="none" 
	d="
M104.307068,35.870510 
	C103.405815,35.891151 102.802467,35.761456 102.047058,35.356213 
	C103.262901,33.543068 104.449615,31.770163 106.051620,30.536613 
	C107.538239,29.391922 109.468285,28.823116 111.600777,28.001503 
	C109.533974,30.574902 107.069473,33.147537 104.307068,35.870510 
z"/>
<path fill="#CAA633" opacity="1.000000" stroke="none" 
	d="
M104.041420,42.855064 
	C104.228111,41.662945 104.414803,40.470825 104.935074,39.108620 
	C105.624298,39.135021 105.979935,39.331512 106.457489,39.685692 
	C106.302933,41.155025 106.026443,42.466679 105.181015,43.716156 
	C104.337006,43.448292 104.146790,43.181984 104.041420,42.855064 
z"/>
<path fill="#51410F" opacity="1.000000" stroke="none" 
	d="
M54.809505,41.211769 
	C52.979004,38.042072 56.730072,39.252586 57.570183,37.943264 
	C58.222393,38.122791 58.371639,38.243389 58.386787,38.674675 
	C58.169468,39.655167 58.086246,40.324966 57.978638,41.245338 
	C57.964043,41.663471 57.973831,41.831028 57.728523,42.000084 
	C57.303394,41.997883 57.133366,41.994171 56.639549,41.982178 
	C55.884205,41.951591 55.452644,41.929287 55.021084,41.906982 
	C55.021084,41.906982 54.893421,41.439217 54.809505,41.211769 
z"/>
<path fill="#815515" opacity="1.000000" stroke="none" 
	d="
M53.413521,49.988541 
	C52.810883,50.393078 52.208252,50.797615 51.333206,51.146393 
	C50.558273,50.824593 50.055759,50.558556 49.313290,49.875633 
	C49.019360,49.053738 48.965382,48.648724 49.246155,48.185921 
	C50.029953,48.076500 50.479004,48.024864 51.242813,47.987831 
	C51.766949,48.019535 51.976322,48.036640 52.392044,48.250999 
	C52.870106,48.961681 53.141811,49.475109 53.413521,49.988541 
z"/>
<path fill="#5D2F11" opacity="1.000000" stroke="none" 
	d="
M52.185692,48.053745 
	C51.976322,48.036640 51.766949,48.019535 51.125076,47.697453 
	C49.467556,46.630299 48.242542,45.868122 47.017529,45.105946 
	C47.772049,44.689167 48.526569,44.272388 49.699162,44.108437 
	C50.244869,44.641968 50.448452,44.847393 50.911488,45.269897 
	C51.458561,46.392754 51.822128,47.223248 52.185692,48.053745 
z"/>
<path fill="#C09D2D" opacity="1.000000" stroke="none" 
	d="
M46.989525,45.441376 
	C48.242542,45.868122 49.467556,46.630299 50.810310,47.682854 
	C50.479004,48.024864 50.029953,48.076500 48.939774,48.084259 
	C47.872459,48.013767 47.446281,47.987144 47.020103,47.960522 
	C47.020103,47.960522 46.998375,48.000271 47.043327,47.770344 
	C47.088280,47.540417 46.932991,47.121632 46.932991,47.121632 
	C46.942497,46.673355 46.952007,46.225082 46.989525,45.441376 
z"/>
<path fill="#6F6854" opacity="1.000000" stroke="none" 
	d="
M54.716995,41.943798 
	C55.452644,41.929287 55.884205,41.951591 56.758533,42.238808 
	C57.453671,42.998756 57.706036,43.493797 57.637474,44.030334 
	C56.886822,44.048252 56.457100,44.024673 55.803055,43.737923 
	C54.677067,43.269112 53.775394,43.063469 52.873726,42.857826 
	C53.386787,42.565422 53.899849,42.273018 54.716995,41.943798 
z"/>
<path fill="#9D9FA2" opacity="1.000000" stroke="none" 
	d="
M52.645691,42.926888 
	C53.775394,43.063469 54.677067,43.269112 55.793079,43.758297 
	C56.007423,44.041840 56.047825,44.060947 55.658298,44.009354 
	C54.495285,44.057587 53.721798,44.157417 52.641804,44.183487 
	C51.943478,43.957859 51.551662,43.805996 51.159843,43.654137 
	C51.579113,43.434742 51.998386,43.215347 52.645691,42.926888 
z"/>
<path fill="#51410F" opacity="1.000000" stroke="none" 
	d="
M46.990089,48.306793 
	C47.446281,47.987144 47.872459,48.013767 48.605019,48.142052 
	C48.965382,48.648724 49.019360,49.053738 49.050621,49.766136 
	C48.338627,49.600044 47.649353,49.126556 46.990089,48.306793 
z"/>
<path fill="#6F201C" opacity="1.000000" stroke="none" 
	d="
M50.872650,43.745872 
	C51.551662,43.805996 51.943478,43.957859 52.640343,44.294136 
	C52.945385,44.478550 52.934517,44.700478 52.570164,44.762688 
	C51.713200,44.875782 51.220592,44.926662 50.727982,44.977539 
	C50.448452,44.847393 50.244869,44.641968 50.053932,44.148857 
	C50.188911,43.903511 50.387184,43.870560 50.872650,43.745872 
z"/>
<path fill="#51410F" opacity="1.000000" stroke="none" 
	d="
M46.740448,47.191212 
	C46.932991,47.121632 47.088280,47.540417 47.064575,47.762505 
	C46.876553,47.743328 46.712231,47.502060 46.740448,47.191212 
z"/>
<path fill="#625635" opacity="1.000000" stroke="none" 
	d="
M73.944443,34.106411 
	C73.195831,33.734005 72.447212,33.361599 71.512222,32.628681 
	C71.405899,31.199829 71.485954,30.131491 71.927048,29.112045 
	C72.527306,29.173155 72.766533,29.185373 73.024948,29.459776 
	C73.033150,29.896872 73.022179,30.071783 73.011208,30.246696 
	C73.353218,30.791849 73.695229,31.337000 74.322693,32.141411 
	C74.608154,32.400673 74.832344,32.718227 74.746658,32.993313 
	C74.648109,33.459362 74.635262,33.650326 74.434044,33.859291 
	C74.245674,33.877293 73.944443,34.106411 73.944443,34.106411 
z"/>
<path fill="#9D9FA2" opacity="1.000000" stroke="none" 
	d="
M74.832344,32.718227 
	C74.832344,32.718227 74.608154,32.400673 74.566963,32.209671 
	C76.034515,32.022675 77.543259,32.026676 79.490463,32.026207 
	C79.944939,32.714264 79.960953,33.406784 79.923454,34.441250 
	C79.693176,34.863945 79.516418,34.944702 79.077164,35.007271 
	C78.814651,34.989086 78.954247,34.765717 78.919632,34.394218 
	C77.534119,33.587891 76.183235,33.153057 74.832344,32.718227 
z"/>
<path fill="#27261E" opacity="1.000000" stroke="none" 
	d="
M73.380417,30.203028 
	C73.022179,30.071783 73.033150,29.896872 73.227890,29.232130 
	C73.957825,28.149572 74.503998,27.556845 75.295990,26.968201 
	C75.541809,26.972284 76.033424,26.981800 76.033424,26.981800 
	C75.272156,28.040987 74.510895,29.100172 73.380417,30.203028 
z"/>
<path fill="#815515" opacity="1.000000" stroke="none" 
	d="
M70.815926,24.795759 
	C70.815926,24.795759 70.945503,24.463932 71.033417,24.309631 
	C72.252449,24.217474 73.383583,24.279619 74.736649,24.757767 
	C74.958580,25.173767 74.955734,25.530111 74.665146,25.567459 
	C73.993790,25.666256 73.613014,25.727707 72.990540,25.557800 
	C72.104538,25.149548 71.460228,24.972654 70.815926,24.795759 
z"/>
<path fill="#625635" opacity="1.000000" stroke="none" 
	d="
M74.955734,25.530111 
	C74.955734,25.530111 74.958580,25.173767 74.982315,24.995441 
	C75.769577,25.081955 76.533096,25.346796 77.296623,25.611639 
	C76.986038,25.911701 76.675453,26.211763 76.199142,26.746813 
	C76.033424,26.981800 75.541809,26.972284 75.286942,26.609003 
	C75.006630,26.007185 74.981178,25.768648 74.955734,25.530111 
z"/>
<path fill="#1D1A11" opacity="1.000000" stroke="none" 
	d="
M80.897629,31.841370 
	C80.945732,31.893715 80.905556,31.834854 80.876671,31.821484 
	C80.847786,31.808111 80.849518,31.789022 80.897629,31.841370 
z"/>
<path fill="#D60916" opacity="1.000000" stroke="none" 
	d="
M50.911488,45.269897 
	C51.220592,44.926662 51.713200,44.875782 52.954910,44.845863 
	C54.482727,44.875412 55.261448,44.883995 56.342476,44.968056 
	C56.807064,46.100819 56.969337,47.158104 57.090458,48.432999 
	C56.968735,48.933727 56.904049,49.220428 56.442101,49.582752 
	C55.192142,49.761253 54.355331,49.867714 53.518517,49.974178 
	C53.518517,49.974178 53.466053,49.988834 53.439789,49.988686 
	C53.141811,49.475109 52.870106,48.961681 52.392044,48.250999 
	C51.822128,47.223248 51.458561,46.392754 50.911488,45.269897 
z"/>
<path fill="#CF5F67" opacity="1.000000" stroke="none" 
	d="
M58.008884,54.223541 
	C56.863743,53.538322 55.756199,52.797852 55.089851,51.609947 
	C56.379005,51.142406 57.226974,51.122303 58.055836,51.469719 
	C58.056660,52.572937 58.076591,53.308643 58.096523,54.044346 
	C58.096523,54.044346 58.046482,54.168285 58.008884,54.223541 
z"/>
<path fill="#DC959B" opacity="1.000000" stroke="none" 
	d="
M58.074940,51.102200 
	C57.226974,51.122303 56.379005,51.142406 55.128410,51.306808 
	C54.393188,51.169754 54.060600,50.888397 53.623264,50.290611 
	C54.355331,49.867714 55.192142,49.761253 56.748463,49.743835 
	C57.904797,49.972725 58.341621,50.112568 58.778450,50.252411 
	C58.778450,50.252411 58.814907,50.455463 58.643147,50.674828 
	C58.471386,50.894196 58.074940,51.102200 58.074940,51.102200 
z"/>
<path fill="#9D9FA2" opacity="1.000000" stroke="none" 
	d="
M79.908936,87.585907 
	C80.065872,87.148109 80.255974,87.116631 80.731583,87.129395 
	C81.030823,89.629059 81.044548,92.084496 81.056664,95.014587 
	C80.684067,92.990242 80.313087,90.491226 79.908936,87.585907 
z"/>
<path fill="#C49C1A" opacity="1.000000" stroke="none" 
	d="
M60.960609,32.983925 
	C62.012844,31.653574 63.065075,30.323221 64.468391,28.972767 
	C64.899475,29.711767 64.979485,30.470865 65.113770,31.608063 
	C64.814758,32.454010 64.461464,32.921860 63.760136,33.574001 
	C62.594936,33.500172 61.777775,33.242050 60.960609,32.983925 
z"/>
<path fill="#C09D2D" opacity="1.000000" stroke="none" 
	d="
M71.566017,29.063150 
	C71.485954,30.131491 71.405899,31.199829 71.201225,32.573364 
	C70.889893,33.153896 70.703186,33.429241 70.317932,33.855621 
	C69.678886,32.140808 69.238396,30.274960 69.175995,28.209679 
	C70.194450,28.371683 70.834824,28.733120 71.489288,29.060955 
	C71.503380,29.027353 71.566017,29.063150 71.566017,29.063150 
z"/>
<path fill="#39321D" opacity="1.000000" stroke="none" 
	d="
M71.475189,29.094555 
	C70.834824,28.733120 70.194450,28.371683 69.243790,27.791357 
	C69.271225,26.940411 69.608955,26.308353 69.963501,25.399021 
	C69.980309,25.121746 70.376534,24.902487 70.596230,24.849123 
	C71.460228,24.972654 72.104538,25.149548 72.758072,25.815739 
	C72.336601,27.234873 71.905891,28.164713 71.475189,29.094555 
z"/>
<path fill="#39321D" opacity="1.000000" stroke="none" 
	d="
M57.958405,43.988838 
	C57.706036,43.493797 57.453671,42.998756 57.082321,42.247086 
	C57.133366,41.994171 57.303394,41.997883 58.047668,42.131737 
	C59.727242,42.466724 60.832561,42.671562 61.937885,42.876400 
	C62.294922,44.032368 62.651955,45.188335 63.065285,46.709412 
	C62.553169,47.358803 61.984764,47.643078 61.195007,47.759659 
	C60.414982,46.918015 59.856308,46.244068 59.138206,45.249588 
	C58.638657,44.615650 58.298531,44.302246 57.958405,43.988838 
z"/>
<path fill="#A58113" opacity="1.000000" stroke="none" 
	d="
M59.297634,45.570122 
	C59.856308,46.244068 60.414982,46.918015 60.931221,47.953651 
	C60.888786,48.315338 60.791126,48.727474 60.726273,48.805790 
	C60.387615,48.902264 60.113804,48.920425 59.422394,48.973598 
	C59.004791,49.008606 59.016682,49.015354 59.024780,48.663162 
	C59.121128,47.397358 59.209381,46.483738 59.297634,45.570122 
z"/>
<path fill="#C1333D" opacity="1.000000" stroke="none" 
	d="
M58.829163,49.944756 
	C58.341621,50.112568 57.904797,49.972725 57.161606,49.671795 
	C56.904049,49.220428 56.968735,48.933727 57.329857,48.519558 
	C58.079174,48.597458 58.547928,48.806404 59.016682,49.015354 
	C59.016682,49.015354 59.004791,49.008606 59.013313,49.019230 
	C58.974510,49.232265 58.927193,49.434681 58.829163,49.944756 
z"/>
<path fill="#C1333D" opacity="1.000000" stroke="none" 
	d="
M58.055836,51.469719 
	C58.074940,51.102200 58.471386,50.894196 58.662064,50.776230 
	C58.775520,51.619804 58.698299,52.581337 58.358803,53.793610 
	C58.076591,53.308643 58.056660,52.572937 58.055836,51.469719 
z"/>
<path fill="#6F201C" opacity="1.000000" stroke="none" 
	d="
M103.784264,42.846283 
	C104.146790,43.181984 104.337006,43.448292 104.823807,43.783554 
	C105.058357,44.130943 105.081169,44.348755 105.063034,45.053955 
	C105.022095,45.541344 104.899170,45.871273 104.687851,45.972813 
	C104.207497,46.252815 104.015381,46.492828 103.650665,46.956711 
	C102.931053,47.755104 102.460976,48.391182 101.990898,49.027260 
	C101.990898,49.027260 101.530472,49.038303 101.300598,49.047432 
	C101.290451,48.197208 101.510178,47.337852 102.008240,46.128426 
	C102.169220,45.613071 102.051849,45.447788 101.934479,45.282501 
	C101.522499,45.190701 101.110512,45.098900 100.400833,44.799072 
	C100.103142,44.591045 100.132088,44.331085 100.460617,44.257217 
	C101.537460,43.783901 102.285767,43.384453 103.034073,42.985004 
	C103.198410,42.935837 103.362755,42.886673 103.784264,42.846283 
z"/>
<path fill="#714E4F" opacity="1.000000" stroke="none" 
	d="
M100.132088,44.331085 
	C100.132088,44.331085 100.103142,44.591045 100.094009,44.720783 
	C99.294556,44.877098 98.504234,44.903675 97.322723,44.863022 
	C96.931534,44.795784 96.893188,44.513321 97.285728,44.321060 
	C98.496208,44.196224 99.314148,44.263653 100.132088,44.331085 
z"/>
<path fill="#D60916" opacity="1.000000" stroke="none" 
	d="
M101.937347,45.420746 
	C102.051849,45.447788 102.169220,45.613071 102.109512,45.806885 
	C101.932449,45.835411 101.940208,45.558983 101.937347,45.420746 
z"/>
<path fill="#97760D" opacity="1.000000" stroke="none" 
	d="
M102.007172,49.334530 
	C102.460976,48.391182 102.931053,47.755104 103.690277,47.371841 
	C104.013062,48.178234 104.046707,48.731815 104.058197,49.556206 
	C103.701897,50.234722 103.367760,50.642433 103.033630,51.050140 
	C102.696907,50.580696 102.360176,50.111248 102.007172,49.334530 
z"/>
<path fill="#1D1A11" opacity="1.000000" stroke="none" 
	d="
M103.127296,51.289703 
	C103.367760,50.642433 103.701897,50.234722 104.386398,49.404846 
	C105.164085,48.757477 105.591408,48.532276 106.018723,48.307076 
	C106.026718,48.603909 106.034714,48.900738 106.057495,49.642944 
	C105.561768,50.658775 105.051239,51.229225 104.297180,51.957478 
	C103.776085,51.919937 103.498528,51.724598 103.127296,51.289703 
z"/>
<path fill="#CAA633" opacity="1.000000" stroke="none" 
	d="
M104.899170,45.871269 
	C104.899170,45.871273 105.022095,45.541344 105.094276,45.380970 
	C105.882309,45.338394 106.598167,45.456192 107.570107,45.695374 
	C107.853470,46.009739 107.880737,46.202724 107.854523,46.681583 
	C107.801041,46.967461 107.392929,46.963428 106.874359,46.971382 
	C105.870255,46.609978 105.384712,46.240623 104.899170,45.871269 
z"/>
<path fill="#8C8281" opacity="1.000000" stroke="none" 
	d="
M100.460617,44.257217 
	C99.314148,44.263653 98.496208,44.196224 97.268471,44.179581 
	C96.858673,44.230362 96.411049,44.040768 96.193916,43.929836 
	C97.660957,43.525093 99.345131,43.231281 101.715973,42.964310 
	C102.606873,42.986858 102.811096,42.982571 103.015320,42.978283 
	C103.015320,42.978283 103.008919,42.998085 103.021500,42.991547 
	C102.285767,43.384453 101.537460,43.783901 100.460617,44.257217 
z"/>
<path fill="#A58113" opacity="1.000000" stroke="none" 
	d="
M104.687851,45.972809 
	C105.384712,46.240623 105.870255,46.609978 106.674576,47.012978 
	C106.752518,47.365734 106.511665,47.684845 106.144775,48.155518 
	C105.591408,48.532276 105.164085,48.757477 104.408569,49.134037 
	C104.046707,48.731815 104.013062,48.178234 103.939804,47.209526 
	C104.015381,46.492828 104.207497,46.252815 104.687851,45.972809 
z"/>
<path fill="#6F6854" opacity="1.000000" stroke="none" 
	d="
M78.808609,35.120647 
	C77.684364,35.381863 76.566162,35.511513 75.280655,35.293449 
	C75.113365,34.945736 75.062859,34.684464 75.442856,34.789471 
	C76.866653,34.851559 77.910446,34.808636 78.954247,34.765717 
	C78.954247,34.765717 78.814651,34.989086 78.808609,35.120647 
z"/>
<path fill="#9D9FA2" opacity="1.000000" stroke="none" 
	d="
M74.090164,34.316437 
	C73.944443,34.106411 74.245674,33.877293 74.619690,34.030899 
	C75.016754,34.351154 75.039803,34.517807 75.062859,34.684464 
	C75.062859,34.684464 75.113365,34.945736 75.063171,35.069225 
	C74.753952,34.970631 74.494926,34.748547 74.090164,34.316437 
z"/>
<path fill="#97760D" opacity="1.000000" stroke="none" 
	d="
M61.962463,42.898827 
	C60.832561,42.671562 59.727242,42.466724 58.302769,42.130234 
	C57.973831,41.831028 57.964043,41.663471 58.321751,41.216587 
	C59.167732,39.662178 59.646214,38.387096 60.117271,36.825474 
	C60.101021,36.348045 60.092194,36.157158 60.410606,35.975651 
	C61.174488,35.997890 61.611134,36.010754 62.047783,36.023617 
	C62.634838,37.088104 63.221889,38.152592 63.797401,39.529488 
	C63.515575,40.248421 63.245285,40.654942 62.730865,41.502754 
	C62.310570,42.289780 62.134407,42.635517 61.958244,42.981251 
	C61.958241,42.981251 61.987041,42.921257 61.962463,42.898827 
z"/>
<path fill="#A58113" opacity="1.000000" stroke="none" 
	d="
M62.310448,35.893814 
	C61.611134,36.010754 61.174488,35.997890 60.135643,35.961292 
	C59.350361,35.937691 59.167278,35.937824 58.984192,35.937954 
	C58.987835,35.505520 58.991474,35.073082 58.997818,34.316170 
	C59.543949,33.814384 60.087383,33.637077 60.795712,33.221848 
	C61.777775,33.242050 62.594936,33.500172 63.711945,33.885742 
	C63.532230,34.596802 63.052670,35.180408 62.310448,35.893814 
z"/>
<path fill="#39321D" opacity="1.000000" stroke="none" 
	d="
M62.223412,42.829956 
	C62.134407,42.635517 62.310570,42.289780 62.727047,41.752403 
	C62.807766,41.933395 62.648174,42.306030 62.223412,42.829956 
z"/>
<path fill="#6F201C" opacity="1.000000" stroke="none" 
	d="
M102.988037,42.718868 
	C102.811096,42.982571 102.606873,42.986858 102.101746,42.925163 
	C102.187485,42.725937 102.574112,42.592693 102.988037,42.718868 
z"/>
<path fill="#5E4A09" opacity="1.000000" stroke="none" 
	d="
M58.783073,36.121269 
	C59.167278,35.937824 59.350361,35.937691 59.808411,35.951912 
	C60.092194,36.157158 60.101021,36.348045 59.947468,37.020027 
	C59.363689,37.788742 58.942291,38.076363 58.520889,38.363983 
	C58.371639,38.243389 58.222393,38.122791 57.857189,37.807877 
	C57.954807,37.177231 58.268379,36.740910 58.783073,36.121269 
z"/>
<path fill="#B58F16" opacity="1.000000" stroke="none" 
	d="
M58.386787,38.674679 
	C58.942291,38.076363 59.363689,37.788742 59.954895,37.306564 
	C59.646214,38.387096 59.167732,39.662178 58.346138,40.966011 
	C58.086246,40.324966 58.169468,39.655167 58.386787,38.674679 
z"/>
<path fill="#5D2F11" opacity="1.000000" stroke="none" 
	d="
M59.024780,48.663162 
	C58.547928,48.806404 58.079174,48.597458 57.371017,48.301949 
	C56.969337,47.158104 56.807064,46.100819 56.353428,44.760571 
	C56.062069,44.477608 56.047825,44.060947 56.047825,44.060947 
	C56.047825,44.060947 56.007423,44.041840 56.017403,44.021469 
	C56.457100,44.024673 56.886822,44.048252 57.637474,44.030334 
	C58.298531,44.302246 58.638657,44.615650 59.138206,45.249588 
	C59.209381,46.483738 59.121128,47.397358 59.024780,48.663162 
z"/>
<path fill="#714E4F" opacity="1.000000" stroke="none" 
	d="
M55.658298,44.009354 
	C56.047825,44.060947 56.062069,44.477608 56.051117,44.685097 
	C55.261448,44.883995 54.482727,44.875412 53.319263,44.783653 
	C52.934517,44.700478 52.945385,44.478550 52.946846,44.367901 
	C53.721798,44.157417 54.495285,44.057587 55.658298,44.009354 
z"/>
<path fill="#FEFEFE" opacity="1.000000" stroke="none" 
	d="
M75.442856,34.789471 
	C75.039803,34.517807 75.016754,34.351154 74.808060,34.012897 
	C74.635262,33.650326 74.648109,33.459362 74.746658,32.993313 
	C76.183235,33.153057 77.534119,33.587891 78.919632,34.394218 
	C77.910446,34.808636 76.866653,34.851559 75.442856,34.789471 
z"/>
<path fill="#C5C7CD" opacity="1.000000" stroke="none" 
	d="
M71.489281,29.060953 
	C71.905891,28.164713 72.336601,27.234873 72.999779,26.047094 
	C73.613014,25.727707 73.993790,25.666256 74.665146,25.567459 
	C74.981178,25.768648 75.006630,26.007185 75.041122,26.604919 
	C74.503998,27.556845 73.957825,28.149572 73.208710,28.969946 
	C72.766533,29.185373 72.527306,29.173155 71.927048,29.112045 
	C71.566017,29.063150 71.503380,29.027353 71.489281,29.060953 
z"/>
</svg>