<svg width="454" height="462" viewBox="0 0 454 462" fill="none" xmlns="http://www.w3.org/2000/svg">
<rect width="454" height="462" fill="#F5F5F5"/>
<path d="M-240 -577H784V851C784 857.627 778.627 863 772 863H-228C-234.627 863 -240 857.627 -240 851V-577Z" fill="white"/>
<path d="M239.742 458.039C231.086 462.474 220.818 462.438 212.194 457.942L16.1576 355.751C6.20938 350.565 -0.0140598 340.262 0.0253099 329.043L0.718339 131.56C0.757709 120.341 7.0533 110.082 17.0377 104.966L213.786 4.15311C222.442 -0.281907 232.71 -0.245879 241.334 4.24978L437.37 106.441C447.318 111.627 453.542 121.93 453.502 133.149L452.809 330.632C452.77 341.851 446.474 352.11 436.49 357.226L239.742 458.039Z" fill="#0A0703" fill-opacity="0.06"/>
</svg>
