<svg version="1.1" id="Layer_1" xmlns="http://www.w3.org/2000/svg" xmlns:xlink="http://www.w3.org/1999/xlink" x="0px" y="0px"
	 width="100%" viewBox="0 0 64 64" enable-background="new 0 0 64 64" xml:space="preserve">
<path fill="#000000" opacity="1.000000" stroke="none" 
	d="
M41.000000,65.000000 
	C35.977909,65.000000 30.955816,65.000000 25.351933,64.632355 
	C18.039738,60.735970 11.465583,61.408360 5.000000,65.000000 
	C4.250000,65.000000 3.500000,65.000000 2.375000,64.574020 
	C2.205118,62.704372 2.128680,61.145859 2.662803,59.836380 
	C5.355144,53.235683 4.965942,46.978107 1.000000,41.000000 
	C1.000000,35.977909 1.000000,30.955816 1.366509,25.353197 
	C3.296305,17.983999 6.580706,12.186929 12.367709,8.235452 
	C16.362684,5.507606 20.774477,3.390202 25.000000,1.000000 
	C30.022093,1.000000 35.044186,1.000000 40.646801,1.366509 
	C48.015999,3.296306 53.813072,6.580706 57.764553,12.367710 
	C60.492397,16.362684 62.609802,20.774477 65.000000,25.000000 
	C65.000000,30.022093 65.000000,35.044186 64.633492,40.646801 
	C62.703693,48.015995 59.419292,53.813065 53.632290,57.764549 
	C49.637318,60.492393 45.225525,62.609798 41.000000,65.000000 
M8.024611,18.709993 
	C2.867773,27.960047 2.320482,37.175007 7.753551,46.611988 
	C8.631367,48.136711 8.362184,50.520573 8.117440,52.442905 
	C7.805574,54.892441 6.978958,57.276436 6.306219,59.960003 
	C7.113415,59.960003 7.854500,60.174984 8.373712,59.926453 
	C13.095072,57.666451 17.530670,56.361931 22.563671,59.836704 
	C24.879814,61.435764 28.354818,61.811623 31.333485,61.916801 
	C44.156837,62.369621 53.452682,56.210297 59.150303,45.151630 
	C63.710003,36.301590 63.166237,27.111515 57.828110,18.500896 
	C52.353065,9.669422 44.466423,4.443261 34.000057,4.071432 
	C22.866533,3.675900 14.505902,8.925307 8.024611,18.709993 
z"/>
<path fill="#FFFFFF" opacity="1.000000" stroke="none" 
	d="
M24.531307,1.000000 
	C20.774477,3.390202 16.362684,5.507606 12.367709,8.235452 
	C6.580706,12.186929 3.296305,17.983999 1.366509,24.886335 
	C1.000000,17.073662 1.000000,9.147325 1.000000,1.000000 
	C8.686132,1.000000 16.374374,1.000000 24.531307,1.000000 
z"/>
<path fill="#FFFFFF" opacity="1.000000" stroke="none" 
	d="
M65.000000,24.531307 
	C62.609802,20.774477 60.492397,16.362684 57.764553,12.367710 
	C53.813072,6.580706 48.015999,3.296306 41.113663,1.366509 
	C48.926334,1.000000 56.852673,1.000000 65.000000,1.000000 
	C65.000000,8.686132 65.000000,16.374374 65.000000,24.531307 
z"/>
<path fill="#FFFFFF" opacity="1.000000" stroke="none" 
	d="
M41.468693,65.000000 
	C45.225525,62.609798 49.637318,60.492393 53.632290,57.764549 
	C59.419292,53.813065 62.703693,48.015995 64.633492,41.113663 
	C65.000000,48.926334 65.000000,56.852673 65.000000,65.000000 
	C57.313869,65.000000 49.625626,65.000000 41.468693,65.000000 
z"/>
<path fill="#FFFFFF" opacity="1.000000" stroke="none" 
	d="
M1.000000,41.468693 
	C4.965942,46.978107 5.355144,53.235683 2.662803,59.836380 
	C2.128680,61.145859 2.205118,62.704372 2.000001,64.574020 
	C1.666668,64.351189 1.050001,63.705181 1.043536,63.053127 
	C0.973750,56.015095 1.000000,48.976109 1.000000,41.468693 
z"/>
<path fill="#FFFFFF" opacity="1.000000" stroke="none" 
	d="
M5.468402,65.000000 
	C11.465583,61.408360 18.039738,60.735970 24.885071,64.632355 
	C18.645601,65.000000 12.291203,65.000000 5.468402,65.000000 
z"/>
<path fill="#FFFFFF" opacity="1.000000" stroke="none" 
	d="
M8.224474,18.384537 
	C14.505902,8.925307 22.866533,3.675900 34.000057,4.071432 
	C44.466423,4.443261 52.353065,9.669422 57.828110,18.500896 
	C63.166237,27.111515 63.710003,36.301590 59.150303,45.151630 
	C53.452682,56.210297 44.156837,62.369621 31.333485,61.916801 
	C28.354818,61.811623 24.879814,61.435764 22.563671,59.836704 
	C17.530670,56.361931 13.095072,57.666451 8.373712,59.926453 
	C7.854500,60.174984 7.113415,59.960003 6.306219,59.960003 
	C6.978958,57.276436 7.805574,54.892441 8.117440,52.442905 
	C8.362184,50.520573 8.631367,48.136711 7.753551,46.611988 
	C2.320482,37.175007 2.867773,27.960047 8.224474,18.384537 
M26.041492,18.485134 
	C24.277119,16.656971 22.828743,14.063663 20.676453,13.174791 
	C17.196560,11.737637 15.636617,14.903295 14.042340,17.447927 
	C10.364285,23.318485 11.975239,28.785330 15.011390,34.260071 
	C21.560534,46.069386 33.927860,55.835377 47.201588,52.023563 
	C51.774960,50.710232 53.746536,47.138134 54.880527,43.144276 
	C55.928394,39.453735 52.169617,39.081581 50.135170,37.578712 
	C49.607277,37.188751 49.220066,36.570198 48.654186,36.276096 
	C45.332077,34.549557 42.128262,33.719852 40.008755,38.004803 
	C38.850178,40.347076 37.428249,40.761147 35.410282,38.918266 
	C32.513073,36.272434 29.432066,33.815964 26.680660,31.030575 
	C25.975048,30.316246 25.603697,28.081829 26.117128,27.552027 
	C28.847528,24.734583 27.745169,21.953716 26.041492,18.485134 
z"/>
<path fill="#000000" opacity="1.000000" stroke="none" 
	d="
M26.314095,18.775572 
	C27.745169,21.953716 28.847528,24.734583 26.117128,27.552027 
	C25.603697,28.081829 25.975048,30.316246 26.680660,31.030575 
	C29.432066,33.815964 32.513073,36.272434 35.410282,38.918266 
	C37.428249,40.761147 38.850178,40.347076 40.008755,38.004803 
	C42.128262,33.719852 45.332077,34.549557 48.654186,36.276096 
	C49.220066,36.570198 49.607277,37.188751 50.135170,37.578712 
	C52.169617,39.081581 55.928394,39.453735 54.880527,43.144276 
	C53.746536,47.138134 51.774960,50.710232 47.201588,52.023563 
	C33.927860,55.835377 21.560534,46.069386 15.011390,34.260071 
	C11.975239,28.785330 10.364285,23.318485 14.042340,17.447927 
	C15.636617,14.903295 17.196560,11.737637 20.676453,13.174791 
	C22.828743,14.063663 24.277119,16.656971 26.314095,18.775572 
M39.760117,48.999908 
	C40.758884,48.999939 41.779282,48.866032 42.752678,49.023205 
	C46.950550,49.701042 49.312550,47.044258 50.696236,43.896980 
	C50.980129,43.251251 47.668552,41.024662 46.014088,39.526955 
	C45.504375,39.065536 44.994057,38.604794 44.972931,38.585697 
	C41.771801,40.654659 40.789936,45.949142 36.056217,43.396999 
	C31.976273,41.197334 28.118032,38.301628 24.824467,35.043709 
	C23.076054,33.314217 21.174839,29.075178 22.033602,27.840178 
	C25.547951,22.786146 22.036461,19.694544 20.312883,15.790054 
	C15.326398,19.702059 15.063184,26.467953 17.173979,30.532763 
	C21.910494,39.653976 28.319693,46.759239 39.760117,48.999908 
z"/>
<path fill="#FFFFFF" opacity="1.000000" stroke="none" 
	d="
M39.324478,48.999298 
	C28.319693,46.759239 21.910494,39.653976 17.173979,30.532763 
	C15.063184,26.467953 15.326398,19.702059 20.312883,15.790054 
	C22.036461,19.694544 25.547951,22.786146 22.033602,27.840178 
	C21.174839,29.075178 23.076054,33.314217 24.824467,35.043709 
	C28.118032,38.301628 31.976273,41.197334 36.056217,43.396999 
	C40.789936,45.949142 41.771801,40.654659 44.972931,38.585697 
	C44.994057,38.604794 45.504375,39.065536 46.014088,39.526955 
	C47.668552,41.024662 50.980129,43.251251 50.696236,43.896980 
	C49.312550,47.044258 46.950550,49.701042 42.752678,49.023205 
	C41.779282,48.866032 40.758884,48.999939 39.324478,48.999298 
z"/>
</svg>